# xmcd CD database file generated by freedbAccess_ocx
#
# Track frame offsets:
#       150
#       25415
#       45927
#       67128
#       82788
#       104473
#       126194
#       147305
#       164933
#       181781
#       201164
#       217300
#       232955
#       247553
#
# Disc length: 3501 seconds
#
# Revision: 0
# Processed by: cddbd v1.4PL0 Copyright (c) Steve Scherf et al.
# Submitted via: CDnGo 2.00
#
DISCID=c40dab0e
DTITLE=Rick Warden - Pilgrim's Paradise
DYEAR=2003
DGENRE=Christian
TTITLE0=That's the Way
TTITLE1=One Tribe
TTITLE2=Abide
TTITLE3=Pilgrim's Paradise
TTITLE4=Papa (Hemmingway)
TTITLE5=He Won't Change His Love
TTITLE6=Hallelujah to the Lamb
TTITLE7=Prayer of Jabez
TTITLE8=It's Not From Me
TTITLE9=Battle Cry
TTITLE10=Sanctify my Praise
TTITLE11=This Well
TTITLE12=Living Hope
TTITLE13=Know Your God
EXTD=
EXTT0=
EXTT1=
EXTT2=
EXTT3=
EXTT4=
EXTT5=
EXTT6=
EXTT7=
EXTT8=
EXTT9=
EXTT10=
EXTT11=
EXTT12=
EXTT13=
PLAYORDER=
